<?xml version="1.0" standalone="no"?>
<!DOCTYPE svg PUBLIC "-//W3C//DTD SVG 20010904//EN"
 "http://www.w3.org/TR/2001/REC-SVG-20010904/DTD/svg10.dtd">
<svg version="1.0" xmlns="http://www.w3.org/2000/svg"
 width="500.000000pt" height="500.000000pt" viewBox="0 0 500.000000 500.000000"
 preserveAspectRatio="xMidYMid meet">

<g transform="translate(0.000000,500.000000) scale(0.100000,-0.100000)"
fill="#000000" stroke="none">
<path d="M0 2500 l0 -2500 2500 0 2500 0 0 2500 0 2500 -2500 0 -2500 0 0
-2500z m3285 1165 c8 -55 -25 -158 -77 -235 -54 -82 -193 -227 -277 -290 -36
-28 -104 -70 -151 -94 -289 -150 -613 -136 -1077 47 -53 20 -83 37 -83 47 0
31 92 172 156 240 119 126 252 171 454 154 189 -16 337 -11 413 13 37 11 69
17 72 12 12 -19 -17 -89 -48 -115 -41 -35 -119 -69 -177 -78 -68 -11 -80 -16
-80 -33 0 -9 7 -25 17 -35 24 -26 127 -24 245 6 211 53 414 188 543 360 53 70
60 71 70 1z m-201 39 c3 -9 6 -40 6 -70 0 -51 -3 -58 -37 -89 -46 -42 -143
-94 -238 -127 -121 -43 -137 -43 -66 -1 73 44 223 181 276 253 39 53 49 59 59
34z m579 -1103 c24 -9 27 -16 27 -56 l0 -46 -30 16 c-45 23 -114 30 -151 15
-38 -16 -59 -61 -59 -125 0 -93 44 -141 121 -133 31 3 34 6 37 40 3 35 2 37
-30 40 -30 3 -33 6 -33 38 l0 35 83 3 82 3 0 -100 0 -99 -42 -17 c-90 -36
-195 -29 -253 17 -40 31 -65 93 -65 163 0 158 72 231 220 221 36 -2 77 -9 93
-15z m-2643 -196 l0 -205 -50 0 -50 0 0 205 0 205 50 0 50 0 0 -205z m265 84
l90 -120 3 120 3 121 44 0 45 0 0 -205 0 -205 -39 0 c-37 0 -41 3 -132 123
l-94 122 -3 -122 -3 -123 -44 0 -45 0 0 205 0 205 43 0 43 0 89 -121z m430 41
l56 -80 60 80 59 80 50 0 50 0 0 -205 0 -205 -50 0 -49 0 -3 136 -3 136 -55
-76 c-30 -41 -58 -76 -61 -76 -3 0 -30 34 -60 76 l-54 77 -3 -137 -3 -136 -44
0 -45 0 0 205 0 205 49 0 50 0 56 -80z m656 -115 c37 -104 68 -196 68 -202 1
-9 -15 -13 -48 -13 -49 0 -49 0 -63 43 l-15 42 -75 3 -76 3 -14 -43 c-14 -42
-16 -43 -63 -46 -36 -2 -46 0 -43 10 3 7 38 100 78 206 l73 193 55 -3 55 -3
68 -190z m299 79 l85 -115 3 115 3 116 49 0 50 0 0 -206 0 -205 -42 3 c-41 3
-44 6 -132 122 l-91 118 -3 -121 -3 -121 -44 0 -45 0 0 205 0 205 43 0 42 -1
85 -115z m508 89 c28 -78 132 -375 132 -379 0 -2 -22 -4 -49 -4 -49 0 -49 0
-63 43 l-15 42 -78 0 -78 0 -14 -42 c-14 -42 -16 -43 -59 -43 -24 0 -44 3 -44
8 0 4 32 90 70 192 39 102 72 191 75 198 3 7 24 12 59 12 50 0 55 -2 64 -27z
m902 -13 l0 -40 -90 0 -90 0 0 -45 0 -45 80 0 80 0 0 -35 0 -35 -80 0 -80 0 0
-45 0 -45 90 0 90 0 0 -40 0 -40 -140 0 -140 0 0 205 0 205 140 0 140 0 0 -40z
m-2260 -745 c0 -57 -4 -95 -10 -95 -6 0 -10 38 -10 95 0 57 4 95 10 95 6 0 10
-38 10 -95z m147 18 l58 -77 3 77 c4 111 22 96 22 -18 0 -69 -3 -95 -12 -95
-7 0 -38 35 -68 76 l-55 76 -3 -76 c-4 -110 -22 -94 -22 19 0 55 4 95 10 95 5
0 36 -35 67 -77z m257 54 c28 -41 -6 -87 -64 -87 -17 0 -20 -7 -20 -40 0 -22
-4 -40 -10 -40 -6 0 -10 38 -10 95 l0 95 45 0 c35 0 48 -5 59 -23z m165 -65
c17 -48 31 -91 31 -95 0 -16 -19 -6 -25 13 -5 16 -15 20 -50 20 -35 0 -45 -4
-50 -20 -6 -19 -25 -29 -25 -13 0 25 65 183 75 183 7 0 26 -39 44 -88z m191
78 c0 -5 -11 -10 -25 -10 -25 0 -25 -1 -25 -85 0 -69 -3 -85 -15 -85 -12 0
-15 16 -15 85 0 84 0 85 -25 85 -14 0 -25 5 -25 10 0 6 28 10 65 10 37 0 65
-4 65 -10z m70 -85 c0 -57 -4 -95 -10 -95 -6 0 -10 38 -10 95 0 57 4 95 10 95
6 0 10 -38 10 -95z m180 85 c0 -5 -20 -10 -45 -10 -43 0 -45 -1 -45 -29 0 -27
3 -30 38 -33 20 -2 37 -7 37 -13 0 -5 -17 -11 -37 -13 -35 -3 -38 -6 -38 -33
0 -28 2 -29 45 -29 25 0 45 -4 45 -10 0 -5 -25 -10 -55 -10 l-55 0 0 95 0 95
55 0 c30 0 55 -4 55 -10z m137 -67 l58 -77 3 77 c4 111 22 96 22 -18 0 -69 -3
-95 -12 -95 -7 0 -38 35 -68 76 l-55 76 -3 -76 c-4 -110 -22 -94 -22 19 0 55
4 95 10 95 5 0 36 -35 67 -77z m253 67 c0 -5 -11 -10 -25 -10 -25 0 -25 -1
-25 -85 0 -50 -4 -85 -10 -85 -6 0 -10 35 -10 85 0 84 0 85 -25 85 -14 0 -25
5 -25 10 0 6 27 10 60 10 33 0 60 -4 60 -10z m-1746 -356 c22 -21 20 -61 -3
-76 -19 -12 -19 -13 6 -55 32 -56 13 -56 -24 0 -16 23 -35 42 -43 42 -10 0
-16 -13 -18 -42 -6 -81 -22 -43 -22 52 l0 95 44 0 c27 0 51 -6 60 -16z m186 6
c0 -5 -18 -10 -40 -10 -38 0 -40 -2 -40 -29 0 -26 4 -30 33 -33 17 -2 32 -7
32 -13 0 -5 -15 -11 -32 -13 -29 -3 -33 -7 -33 -33 0 -27 2 -29 40 -29 22 0
40 -4 40 -10 0 -5 -25 -10 -55 -10 l-55 0 0 95 0 95 55 0 c30 0 55 -4 55 -10z
m80 -30 l0 -40 55 0 55 0 0 40 c0 22 5 40 10 40 6 0 10 -38 10 -95 0 -57 -4
-95 -10 -95 -5 0 -10 18 -10 40 l0 40 -55 0 -55 0 0 -40 c0 -22 -4 -40 -10
-40 -6 0 -10 38 -10 95 0 57 4 95 10 95 6 0 10 -18 10 -40z m299 -48 c17 -48
31 -91 31 -95 0 -16 -19 -6 -25 13 -5 16 -15 20 -50 20 -35 0 -45 -4 -50 -20
-6 -19 -25 -29 -25 -13 0 25 65 183 75 183 7 0 26 -39 44 -88z m189 76 c15
-15 16 -64 2 -73 -6 -4 -4 -12 5 -21 40 -40 5 -84 -66 -84 l-49 0 0 95 0 95
48 0 c26 0 53 -5 60 -12z m102 -83 c0 -57 -4 -95 -10 -95 -6 0 -10 38 -10 95
0 57 4 95 10 95 6 0 10 -38 10 -95z m100 10 l0 -85 35 0 c19 0 35 -4 35 -10 0
-5 -20 -10 -45 -10 l-45 0 0 95 c0 57 4 95 10 95 6 0 10 -35 10 -85z m140 -10
c0 -57 -4 -95 -10 -95 -6 0 -10 38 -10 95 0 57 4 95 10 95 6 0 10 -38 10 -95z
m170 85 c0 -5 -11 -10 -25 -10 -25 0 -25 -1 -25 -85 0 -50 -4 -85 -10 -85 -6
0 -10 35 -10 85 0 84 0 85 -25 85 -14 0 -25 5 -25 10 0 6 27 10 60 10 33 0 60
-4 60 -10z m157 -88 c18 -51 28 -92 23 -92 -5 0 -14 9 -20 20 -8 15 -21 20
-55 20 -33 0 -45 -4 -45 -14 0 -15 -18 -32 -25 -24 -4 3 19 71 54 161 6 16 17
27 23 25 7 -3 27 -46 45 -96z m183 88 c0 -5 -11 -10 -25 -10 -25 0 -25 -1 -25
-85 0 -50 -4 -85 -10 -85 -6 0 -10 35 -10 85 l0 85 -30 0 c-16 0 -30 5 -30 10
0 6 28 10 65 10 37 0 65 -4 65 -10z m70 -85 c0 -57 -4 -95 -10 -95 -6 0 -10
38 -10 95 0 57 4 95 10 95 6 0 10 -38 10 -95z m231 66 c21 -22 29 -39 29 -66
0 -83 -105 -127 -164 -69 -19 20 -26 37 -26 67 0 89 98 130 161 68z m169 -47
l55 -76 3 76 c4 110 22 94 22 -19 0 -55 -4 -95 -10 -95 -5 0 -36 35 -67 77
l-58 77 -3 -77 c-4 -111 -22 -96 -22 18 0 69 3 95 13 95 6 0 37 -35 67 -76z
m-2000 -354 c18 -44 36 -77 39 -75 2 3 19 38 36 77 45 102 55 99 55 -16 0 -57
-4 -96 -10 -96 -6 0 -10 30 -11 68 l-1 67 -31 -67 c-17 -38 -34 -68 -39 -68
-5 0 -24 33 -42 73 l-34 72 -1 -72 c-1 -42 -5 -73 -11 -73 -6 0 -10 38 -10 95
0 121 14 124 60 15z m278 53 c48 -122 60 -163 48 -163 -8 0 -16 9 -19 20 -4
16 -14 20 -50 20 -36 0 -46 -4 -50 -20 -3 -11 -11 -20 -17 -20 -7 0 -10 6 -8
13 3 6 18 49 34 95 16 45 34 82 40 82 6 0 16 -12 22 -27z m187 -52 l55 -75 0
77 c0 45 4 77 10 77 6 0 10 -38 10 -95 0 -52 -4 -95 -9 -95 -5 0 -33 32 -63
72 l-53 72 -3 -72 c-4 -107 -22 -88 -22 24 0 56 4 94 10 92 5 -1 34 -36 65
-77z m223 52 c48 -122 60 -163 48 -163 -8 0 -16 9 -19 20 -4 16 -14 20 -50 20
-36 0 -46 -4 -50 -20 -3 -11 -11 -20 -17 -20 -7 0 -10 6 -8 13 3 6 18 49 34
95 16 45 34 82 40 82 6 0 16 -12 22 -27z m259 2 c31 -27 13 -35 -21 -10 -71
54 -155 -47 -94 -112 30 -32 72 -30 106 5 l27 27 -42 3 c-60 4 -54 22 7 22 44
0 50 -3 50 -21 0 -11 -13 -34 -29 -50 -39 -38 -87 -39 -130 -3 -26 21 -31 33
-31 69 0 36 5 48 31 69 40 34 88 34 126 1z m203 15 c0 -5 -18 -10 -40 -10 -38
0 -40 -2 -40 -30 0 -28 3 -30 35 -30 24 0 35 -5 35 -15 0 -10 -11 -15 -35 -15
-32 0 -35 -2 -35 -30 0 -28 2 -30 40 -30 22 0 40 -4 40 -10 0 -5 -22 -10 -50
-10 l-50 0 0 95 0 95 50 0 c28 0 50 -4 50 -10z m121 -65 c18 -41 36 -75 39
-75 4 0 22 34 40 75 18 41 37 75 41 75 5 0 9 -43 9 -95 0 -57 -4 -95 -10 -95
-6 0 -10 29 -10 68 l-1 67 -29 -65 c-16 -36 -34 -65 -41 -65 -6 0 -23 29 -38
65 l-26 64 -3 -67 c-4 -103 -22 -80 -22 28 0 52 4 95 9 95 5 0 24 -34 42 -75z
m309 65 c0 -5 -18 -10 -40 -10 -38 0 -40 -2 -40 -30 0 -28 3 -30 35 -30 24 0
35 -5 35 -15 0 -10 -11 -15 -35 -15 -32 0 -35 -2 -35 -30 0 -28 2 -30 40 -30
22 0 40 -4 40 -10 0 -5 -22 -10 -50 -10 l-50 0 0 95 0 95 50 0 c28 0 50 -4 50
-10z m145 -69 l55 -75 0 77 c0 45 4 77 10 77 6 0 10 -38 10 -95 0 -52 -4 -95
-9 -95 -5 0 -33 32 -63 72 l-53 72 -3 -72 c-4 -107 -22 -88 -22 24 0 56 4 94
10 92 5 -1 34 -36 65 -77z m255 69 c0 -5 -11 -10 -25 -10 -25 0 -25 -1 -25
-85 0 -69 -3 -85 -15 -85 -12 0 -15 16 -15 85 0 84 0 85 -25 85 -14 0 -25 5
-25 10 0 6 28 10 65 10 37 0 65 -4 65 -10z"/>
<path d="M2212 2442 c-12 -38 -22 -71 -22 -75 0 -4 22 -7 49 -7 l50 0 -25 72
c-13 39 -25 73 -27 74 -2 2 -13 -27 -25 -64z"/>
<path d="M3082 2442 c-12 -37 -22 -71 -22 -75 0 -4 20 -7 45 -7 25 0 45 4 45
8 0 4 -10 39 -23 76 l-23 67 -22 -69z"/>
<path d="M2140 1864 c0 -36 1 -36 32 -30 18 3 35 12 39 18 13 21 -10 48 -41
48 -28 0 -30 -3 -30 -36z"/>
<path d="M2327 1846 c-9 -27 -17 -51 -17 -53 0 -2 16 -3 36 -3 39 0 39 2 10
75 l-12 30 -17 -49z"/>
<path d="M1390 1520 c0 -28 3 -30 35 -30 23 0 38 6 41 15 9 23 -15 45 -47 45
-26 0 -29 -4 -29 -30z"/>
<path d="M1977 1496 c-9 -27 -17 -51 -17 -53 0 -2 16 -3 36 -3 39 0 39 2 10
75 l-12 30 -17 -49z"/>
<path d="M2140 1520 c0 -30 2 -31 38 -28 32 3 37 6 37 28 0 22 -5 25 -37 28
-36 3 -38 2 -38 -28z"/>
<path d="M2140 1430 c0 -27 3 -30 34 -30 37 0 62 21 52 45 -3 10 -19 15 -46
15 -38 0 -40 -2 -40 -30z"/>
<path d="M2832 1491 c-16 -52 -16 -51 18 -51 17 0 30 3 30 6 0 17 -24 84 -30
84 -4 0 -12 -17 -18 -39z"/>
<path d="M3262 1527 c-67 -72 34 -172 103 -102 14 13 25 36 25 50 0 35 -42 75
-78 75 -17 0 -37 -9 -50 -23z"/>
<path d="M1792 1153 c-17 -57 -16 -63 18 -63 34 0 36 8 11 64 l-17 39 -12 -40z"/>
<path d="M2202 1153 c-17 -57 -16 -63 18 -63 34 0 36 8 11 64 l-17 39 -12 -40z"/>
</g>
</svg>
